<svg width="512" height="512" viewBox="0 0 512 512" fill="none" xmlns="http://www.w3.org/2000/svg">
<rect width="512" height="512" fill="white"/>
<path fill-rule="evenodd" clip-rule="evenodd" d="M127.977 113.577L130.966 112L133.954 113.577L219.977 157.742V157.742C224.509 160.028 224.509 166.498 219.977 168.783V168.783L194.687 181.597V213.737C194.647 215.997 193.87 218.176 192.485 219.954C191.958 223.67 190.618 226.664 188.465 228.936C185.614 231.787 181.338 233.212 175.635 233.212H114.099V265.05H170.408C175.952 265.05 180.15 266.475 183.001 269.326C186.01 272.177 187.515 276.375 187.515 281.919C187.515 287.462 186.01 291.66 183.001 294.511C180.15 297.362 175.952 298.788 170.408 298.788H114.099V333.238H175.635C181.338 333.238 185.614 334.743 188.465 337.753C191.316 340.604 192.742 344.722 192.742 350.107C192.742 355.651 191.316 359.849 188.465 362.7C185.614 365.551 181.338 366.976 175.635 366.976H95.0918C87.6473 366.976 81.9451 365.076 77.9852 361.274C74.1837 357.314 72.283 351.691 72.283 344.405V222.514C71.4825 221.982 70.7243 221.38 70.0355 220.639C68.5381 219.037 67.2445 216.519 67.2445 213.737V181.597L54.5003 175.093V221.819C58.3108 224.015 60.8724 228.008 60.8724 232.665C60.8724 236.011 59.5297 239.221 57.1397 241.587C54.7497 243.954 51.5082 245.283 48.1282 245.283C44.7482 245.283 41.5067 243.954 39.1167 241.587C36.7267 239.221 35.384 236.011 35.384 232.665C35.384 228.002 37.9456 224.015 41.7561 221.819V168.588V168.588C37.3267 166.395 37.3041 160.085 41.7178 157.861L41.9536 157.742L127.977 113.577ZM181.942 200.196C180.182 199.741 178.206 199.501 176.015 199.476C175.01 199.213 173.999 198.971 172.983 198.752C161.928 196.311 147.195 194.809 130.966 194.809C114.736 194.809 99.9971 196.311 88.9479 198.752C85.5643 199.491 82.6523 200.355 79.9887 201.314V177.269C80.0693 177.208 80.1339 177.141 80.205 177.067C80.3588 176.908 80.5426 176.718 80.9828 176.481C83.0219 175.421 86.9088 174.184 91.7389 173.13C101.424 170.979 115.411 169.572 130.966 169.572C146.52 169.572 160.513 170.979 170.192 173.124C175.022 174.178 178.903 175.414 180.948 176.468C181.394 176.708 181.58 176.903 181.734 177.065C181.803 177.137 181.866 177.203 181.942 177.263V200.196ZM203.053 163.263L130.966 126.196L58.878 163.263L70.233 168.979C71.6859 167.537 73.3669 166.339 75.2097 165.433C78.9437 163.484 83.4233 162.102 88.9479 160.897C99.978 158.455 114.659 156.953 130.966 156.953C147.272 156.953 161.959 158.455 172.983 160.897C178.501 162.102 182.987 163.484 186.721 165.433C188.564 166.339 190.245 167.537 191.698 168.979L203.053 163.263ZM260.76 369.59C250.781 369.59 241.911 367.135 234.15 362.225C226.547 357.314 220.528 350.266 216.093 341.079C211.816 331.892 209.678 321.042 209.678 308.529C209.678 295.699 211.816 284.77 216.093 275.741C220.528 266.713 226.547 259.743 234.15 254.833C241.911 249.923 250.781 247.468 260.76 247.468C269.472 247.468 277.312 249.527 284.282 253.645C289.251 256.581 293.052 260.122 295.686 264.265V218.719C295.686 211.75 297.508 206.444 301.151 202.801C304.794 199.158 310.021 197.336 316.832 197.336C323.484 197.336 328.632 199.158 332.275 202.801C336.077 206.444 337.977 211.75 337.977 218.719V347.732C337.977 354.701 336.156 360.007 332.513 363.65C329.028 367.293 323.88 369.115 317.069 369.115C310.417 369.115 305.269 367.293 301.626 363.65C298.664 360.689 296.907 356.629 296.353 351.469C293.766 356.072 289.901 359.974 284.757 363.175C277.787 367.452 269.789 369.59 260.76 369.59ZM274.303 338.465C278.579 338.465 282.381 337.436 285.707 335.377C289.033 333.159 291.568 329.912 293.31 325.636C295.211 321.2 296.161 315.498 296.161 308.529C296.161 297.916 294.102 290.314 289.984 285.72C285.866 280.968 280.639 278.592 274.303 278.592C270.026 278.592 266.225 279.622 262.898 281.681C259.572 283.74 256.959 286.987 255.058 291.422C253.157 295.699 252.207 301.401 252.207 308.529C252.207 318.983 254.266 326.586 258.384 331.338C262.502 336.09 267.809 338.465 274.303 338.465ZM381.247 364.125C387.741 367.768 396.057 369.59 406.194 369.59C414.747 369.59 422.113 367.531 428.29 363.413C432.718 360.534 436.45 356.766 439.486 352.107C440.113 356.964 441.846 360.812 444.684 363.65C448.327 367.293 453.475 369.115 460.127 369.115C473.749 369.115 480.56 361.987 480.56 347.732V269.089C480.56 262.119 478.739 256.892 475.096 253.408C471.453 249.765 466.226 247.943 459.415 247.943C452.604 247.943 447.377 249.765 443.733 253.408C440.09 256.892 438.269 262.119 438.269 269.089V314.706C438.269 321.517 436.447 326.982 432.804 331.1C429.161 335.218 424.489 337.278 418.786 337.278C413.718 337.278 409.995 335.852 407.62 333.001C405.244 330.15 404.056 325.873 404.056 320.171V269.089C404.056 262.119 402.234 256.892 398.591 253.408C394.948 249.765 389.721 247.943 382.91 247.943C376.099 247.943 370.872 249.765 367.229 253.408C363.586 256.892 361.764 262.119 361.764 269.089V318.983C361.764 330.387 363.348 339.812 366.516 347.256C369.842 354.701 374.753 360.324 381.247 364.125Z" fill="#9747FF"/>
</svg>
