<svg width="222" height="110" viewBox="0 0 222 110" fill="none" xmlns="http://www.w3.org/2000/svg">
<path d="M3.696 75.824C2.53867 75.824 1.624 75.5067 0.952 74.872C0.317334 74.2 0 73.248 0 72.016V39.704C0 38.472 0.317334 37.5387 0.952 36.904C1.624 36.232 2.576 35.896 3.808 35.896H23.352C24.3227 35.896 25.0507 36.1387 25.536 36.624C26.0213 37.1093 26.264 37.8 26.264 38.696C26.264 39.6293 26.0213 40.3573 25.536 40.88C25.0507 41.3653 24.3227 41.608 23.352 41.608H7.168V52.752H22.176C23.1093 52.752 23.8187 52.9947 24.304 53.48C24.8267 53.9653 25.088 54.656 25.088 55.552C25.088 56.4853 24.8267 57.2133 24.304 57.736C23.8187 58.2213 23.1093 58.464 22.176 58.464H7.168V72.016C7.168 74.5547 6.01067 75.824 3.696 75.824Z" fill="#FF1A7A"/>
<path d="M33.8104 75.824C32.6531 75.824 31.7571 75.5253 31.1224 74.928C30.5251 74.2933 30.2264 73.3973 30.2264 72.24V51.072C30.2264 49.9147 30.5251 49.0373 31.1224 48.44C31.7198 47.8427 32.5598 47.544 33.6424 47.544C34.7251 47.544 35.5651 47.8427 36.1624 48.44C36.7598 49.0373 37.0584 49.9147 37.0584 51.072V54.6H36.4984C37.0211 52.36 38.0478 50.6613 39.5784 49.504C41.1091 48.3467 43.1438 47.656 45.6824 47.432C46.4664 47.3573 47.0824 47.5627 47.5304 48.048C48.0158 48.496 48.2958 49.2053 48.3704 50.176C48.4451 51.1093 48.2211 51.8747 47.6984 52.472C47.2131 53.032 46.4664 53.368 45.4584 53.48L44.2264 53.592C41.9491 53.816 40.2318 54.5253 39.0744 55.72C37.9171 56.8773 37.3384 58.52 37.3384 60.648V72.24C37.3384 73.3973 37.0398 74.2933 36.4424 74.928C35.8451 75.5253 34.9678 75.824 33.8104 75.824Z" fill="#FF1A7A"/>
<path d="M55.6281 75.768C54.5081 75.768 53.6495 75.432 53.0521 74.76C52.4548 74.088 52.1561 73.1547 52.1561 71.96V51.408C52.1561 50.176 52.4548 49.2427 53.0521 48.608C53.6495 47.936 54.5081 47.6 55.6281 47.6C56.7481 47.6 57.6068 47.936 58.2041 48.608C58.8388 49.2427 59.1561 50.176 59.1561 51.408V71.96C59.1561 73.1547 58.8575 74.088 58.2601 74.76C57.6628 75.432 56.7855 75.768 55.6281 75.768ZM55.6281 42.392C54.3215 42.392 53.2948 42.0747 52.5481 41.44C51.8388 40.768 51.4841 39.8533 51.4841 38.696C51.4841 37.5013 51.8388 36.5867 52.5481 35.952C53.2948 35.3173 54.3215 35 55.6281 35C56.9721 35 57.9988 35.3173 58.7081 35.952C59.4175 36.5867 59.7721 37.5013 59.7721 38.696C59.7721 39.8533 59.4175 40.768 58.7081 41.44C57.9988 42.0747 56.9721 42.392 55.6281 42.392Z" fill="#FF1A7A"/>
<path d="M79.9256 75.936C76.8269 75.936 74.1576 75.3573 71.9176 74.2C69.6776 73.0427 67.9416 71.4 66.7096 69.272C65.5149 67.144 64.9176 64.624 64.9176 61.712C64.9176 58.8747 65.4962 56.392 66.6536 54.264C67.8482 52.136 69.4722 50.4747 71.5256 49.28C73.6162 48.048 75.9869 47.432 78.6376 47.432C80.5789 47.432 82.3149 47.7493 83.8456 48.384C85.4136 49.0187 86.7389 49.9333 87.8216 51.128C88.9416 52.3227 89.7816 53.7787 90.3416 55.496C90.9389 57.176 91.2376 59.08 91.2376 61.208C91.2376 61.88 90.9949 62.4027 90.5096 62.776C90.0616 63.112 89.4082 63.28 88.5496 63.28H70.5736V59.248H86.3096L85.4136 60.088C85.4136 58.3707 85.1522 56.9333 84.6296 55.776C84.1442 54.6187 83.4162 53.7413 82.4456 53.144C81.5122 52.5093 80.3362 52.192 78.9176 52.192C77.3496 52.192 76.0056 52.5653 74.8856 53.312C73.8029 54.0213 72.9629 55.048 72.3656 56.392C71.8056 57.6987 71.5256 59.2667 71.5256 61.096V61.488C71.5256 64.5493 72.2349 66.8453 73.6536 68.376C75.1096 69.8693 77.2376 70.616 80.0376 70.616C81.0082 70.616 82.0909 70.504 83.2856 70.28C84.5176 70.0187 85.6749 69.5893 86.7576 68.992C87.5416 68.544 88.2322 68.3573 88.8296 68.432C89.4269 68.4693 89.8936 68.6747 90.2296 69.048C90.6029 69.4213 90.8269 69.888 90.9016 70.448C90.9762 70.9707 90.8642 71.512 90.5656 72.072C90.3042 72.632 89.8376 73.1173 89.1656 73.528C87.8589 74.3493 86.3469 74.9653 84.6296 75.376C82.9496 75.7493 81.3816 75.936 79.9256 75.936Z" fill="#FF1A7A"/>
<path d="M100.253 75.824C99.1331 75.824 98.2745 75.5253 97.6771 74.928C97.0798 74.2933 96.7811 73.3973 96.7811 72.24V51.072C96.7811 49.9147 97.0798 49.0373 97.6771 48.44C98.2745 47.8427 99.1145 47.544 100.197 47.544C101.28 47.544 102.12 47.8427 102.717 48.44C103.314 49.0373 103.613 49.9147 103.613 51.072V54.88L102.997 53.48C103.818 51.5013 105.088 50.008 106.805 49C108.56 47.9547 110.538 47.432 112.741 47.432C114.944 47.432 116.754 47.8427 118.173 48.664C119.592 49.4853 120.656 50.736 121.365 52.416C122.074 54.0587 122.429 56.1493 122.429 58.688V72.24C122.429 73.3973 122.13 74.2933 121.533 74.928C120.936 75.5253 120.077 75.824 118.957 75.824C117.837 75.824 116.96 75.5253 116.325 74.928C115.728 74.2933 115.429 73.3973 115.429 72.24V59.024C115.429 56.896 115.018 55.3467 114.197 54.376C113.413 53.4053 112.181 52.92 110.501 52.92C108.448 52.92 106.805 53.5733 105.573 54.88C104.378 56.1493 103.781 57.848 103.781 59.976V72.24C103.781 74.6293 102.605 75.824 100.253 75.824Z" fill="#FF1A7A"/>
<path d="M140.067 75.936C137.678 75.936 135.568 75.3573 133.739 74.2C131.947 73.0427 130.547 71.4 129.539 69.272C128.531 67.1067 128.027 64.568 128.027 61.656C128.027 58.7067 128.531 56.1867 129.539 54.096C130.547 51.968 131.947 50.3253 133.739 49.168C135.568 48.0107 137.678 47.432 140.067 47.432C142.344 47.432 144.323 47.992 146.003 49.112C147.72 50.232 148.878 51.7067 149.475 53.536H148.859V38.976C148.859 37.8187 149.158 36.9413 149.755 36.344C150.352 35.7467 151.211 35.448 152.331 35.448C153.451 35.448 154.31 35.7467 154.907 36.344C155.542 36.9413 155.859 37.8187 155.859 38.976V72.24C155.859 73.3973 155.56 74.2933 154.963 74.928C154.366 75.5253 153.507 75.824 152.387 75.824C151.267 75.824 150.408 75.5253 149.811 74.928C149.214 74.2933 148.915 73.3973 148.915 72.24V67.872L149.531 69.552C148.971 71.4933 147.832 73.0427 146.115 74.2C144.398 75.3573 142.382 75.936 140.067 75.936ZM142.027 70.616C143.408 70.616 144.622 70.28 145.667 69.608C146.712 68.936 147.515 67.9467 148.075 66.64C148.672 65.296 148.971 63.6347 148.971 61.656C148.971 58.6693 148.336 56.448 147.067 54.992C145.798 53.4987 144.118 52.752 142.027 52.752C140.646 52.752 139.432 53.088 138.387 53.76C137.342 54.3947 136.52 55.384 135.923 56.728C135.363 58.0347 135.083 59.6773 135.083 61.656C135.083 64.6053 135.718 66.8453 136.987 68.376C138.256 69.8693 139.936 70.616 142.027 70.616Z" fill="#FF1A7A"/>
<path d="M175.605 75.936C172.768 75.936 170.304 75.3573 168.213 74.2C166.122 73.0427 164.498 71.4 163.341 69.272C162.184 67.1067 161.605 64.568 161.605 61.656C161.605 59.4533 161.922 57.4933 162.557 55.776C163.229 54.0213 164.181 52.528 165.413 51.296C166.645 50.0267 168.12 49.0747 169.837 48.44C171.554 47.768 173.477 47.432 175.605 47.432C178.442 47.432 180.906 48.0107 182.997 49.168C185.088 50.3253 186.712 51.968 187.869 54.096C189.026 56.224 189.605 58.744 189.605 61.656C189.605 63.8587 189.269 65.8373 188.597 67.592C187.962 69.3467 187.029 70.8587 185.797 72.128C184.565 73.36 183.09 74.312 181.373 74.984C179.656 75.6187 177.733 75.936 175.605 75.936ZM175.605 70.616C176.986 70.616 178.2 70.28 179.245 69.608C180.29 68.936 181.093 67.9467 181.653 66.64C182.25 65.296 182.549 63.6347 182.549 61.656C182.549 58.6693 181.914 56.448 180.645 54.992C179.376 53.4987 177.696 52.752 175.605 52.752C174.224 52.752 173.01 53.088 171.965 53.76C170.92 54.3947 170.098 55.384 169.501 56.728C168.941 58.0347 168.661 59.6773 168.661 61.656C168.661 64.6053 169.296 66.8453 170.565 68.376C171.834 69.8693 173.514 70.616 175.605 70.616Z" fill="#FF1A7A"/>
<path d="M207.871 75.936C205.033 75.936 202.569 75.3573 200.479 74.2C198.388 73.0427 196.764 71.4 195.607 69.272C194.449 67.1067 193.871 64.568 193.871 61.656C193.871 59.4533 194.188 57.4933 194.823 55.776C195.495 54.0213 196.447 52.528 197.679 51.296C198.911 50.0267 200.385 49.0747 202.103 48.44C203.82 47.768 205.743 47.432 207.871 47.432C210.708 47.432 213.172 48.0107 215.263 49.168C217.353 50.3253 218.977 51.968 220.135 54.096C221.292 56.224 221.871 58.744 221.871 61.656C221.871 63.8587 221.535 65.8373 220.863 67.592C220.228 69.3467 219.295 70.8587 218.063 72.128C216.831 73.36 215.356 74.312 213.639 74.984C211.921 75.6187 209.999 75.936 207.871 75.936ZM207.871 70.616C209.252 70.616 210.465 70.28 211.511 69.608C212.556 68.936 213.359 67.9467 213.919 66.64C214.516 65.296 214.815 63.6347 214.815 61.656C214.815 58.6693 214.18 56.448 212.911 54.992C211.641 53.4987 209.961 52.752 207.871 52.752C206.489 52.752 205.276 53.088 204.231 53.76C203.185 54.3947 202.364 55.384 201.767 56.728C201.207 58.0347 200.927 59.6773 200.927 61.656C200.927 64.6053 201.561 66.8453 202.831 68.376C204.1 69.8693 205.78 70.616 207.871 70.616Z" fill="#FF1A7A"/>
</svg>
