<svg width="148" height="151" viewBox="0 0 148 151" fill="none" xmlns="http://www.w3.org/2000/svg">
<rect x="1.5" y="1.5" width="144.543" height="147.58" rx="72.2717" fill="white"/>
<path d="M26.9118 69.172C25.9038 69.172 24.8718 69.088 23.8158 68.92C22.7838 68.776 21.7878 68.56 20.8278 68.272C19.8918 67.984 19.0518 67.624 18.3078 67.192C17.7798 66.904 17.4078 66.532 17.1918 66.076C16.9758 65.596 16.8918 65.116 16.9398 64.636C17.0118 64.156 17.1918 63.736 17.4798 63.376C17.7918 62.992 18.1758 62.752 18.6318 62.656C19.1118 62.536 19.6398 62.62 20.2158 62.908C21.1998 63.46 22.2678 63.868 23.4198 64.132C24.5958 64.396 25.7598 64.528 26.9118 64.528C28.6638 64.528 29.9118 64.264 30.6558 63.736C31.3998 63.184 31.7718 62.5 31.7718 61.684C31.7718 60.988 31.5078 60.436 30.9798 60.028C30.4518 59.62 29.5278 59.272 28.2078 58.984L24.1398 58.12C21.8358 57.64 20.1198 56.824 18.9918 55.672C17.8878 54.496 17.3358 52.96 17.3358 51.064C17.3358 49.864 17.5878 48.772 18.0918 47.788C18.5958 46.804 19.3038 45.952 20.2158 45.232C21.1278 44.512 22.2078 43.96 23.4558 43.576C24.7278 43.192 26.1198 43 27.6318 43C28.9758 43 30.2958 43.168 31.5918 43.504C32.8878 43.816 34.0278 44.284 35.0118 44.908C35.4918 45.196 35.8158 45.568 35.9838 46.024C36.1758 46.456 36.2358 46.9 36.1638 47.356C36.1158 47.788 35.9358 48.172 35.6238 48.508C35.3358 48.844 34.9638 49.06 34.5078 49.156C34.0518 49.252 33.4998 49.144 32.8518 48.832C32.0598 48.424 31.2198 48.124 30.3318 47.932C29.4438 47.74 28.5318 47.644 27.5958 47.644C26.5878 47.644 25.7238 47.776 25.0038 48.04C24.3078 48.304 23.7678 48.676 23.3838 49.156C23.0238 49.636 22.8438 50.188 22.8438 50.812C22.8438 51.508 23.0958 52.072 23.5998 52.504C24.1038 52.936 24.9798 53.284 26.2278 53.548L30.2958 54.412C32.6478 54.916 34.3998 55.732 35.5518 56.86C36.7038 57.964 37.2798 59.428 37.2798 61.252C37.2798 62.452 37.0398 63.544 36.5598 64.528C36.0798 65.488 35.3838 66.316 34.4718 67.012C33.5598 67.708 32.4678 68.248 31.1958 68.632C29.9238 68.992 28.4958 69.172 26.9118 69.172Z" fill="#36365A"/>
<path d="M43.1703 75.58C42.2823 75.58 41.5983 75.34 41.1183 74.86C40.6623 74.404 40.4343 73.72 40.4343 72.808V53.548C40.4343 52.66 40.6623 51.988 41.1183 51.532C41.5983 51.052 42.2583 50.812 43.0983 50.812C43.9863 50.812 44.6583 51.052 45.1143 51.532C45.5703 51.988 45.7983 52.66 45.7983 53.548V55.996L45.4023 54.592C45.7623 53.44 46.4823 52.516 47.5623 51.82C48.6663 51.1 49.9263 50.74 51.3423 50.74C52.8783 50.74 54.2223 51.112 55.3743 51.856C56.5503 52.6 57.4623 53.656 58.1103 55.024C58.7583 56.392 59.0823 58.024 59.0823 59.92C59.0823 61.816 58.7583 63.46 58.1103 64.852C57.4623 66.244 56.5623 67.312 55.4103 68.056C54.2583 68.8 52.9023 69.172 51.3423 69.172C49.9503 69.172 48.7143 68.836 47.6343 68.164C46.5543 67.468 45.8223 66.568 45.4383 65.464H45.8703V72.808C45.8703 73.72 45.6303 74.404 45.1503 74.86C44.6943 75.34 44.0343 75.58 43.1703 75.58ZM49.7223 65.104C50.4903 65.104 51.1623 64.912 51.7383 64.528C52.3383 64.144 52.7943 63.58 53.1063 62.836C53.4423 62.068 53.6103 61.096 53.6103 59.92C53.6103 58.168 53.2503 56.884 52.5303 56.068C51.8103 55.228 50.8743 54.808 49.7223 54.808C48.9543 54.808 48.2703 54.988 47.6703 55.348C47.0943 55.708 46.6383 56.272 46.3023 57.04C45.9663 57.784 45.7983 58.744 45.7983 59.92C45.7983 61.672 46.1583 62.98 46.8783 63.844C47.5983 64.684 48.5463 65.104 49.7223 65.104Z" fill="#36365A"/>
<path d="M65.2149 69.1C64.3029 69.1 63.6069 68.86 63.1269 68.38C62.6469 67.9 62.4069 67.216 62.4069 66.328V53.548C62.4069 52.66 62.6349 51.988 63.0909 51.532C63.5709 51.052 64.2309 50.812 65.0709 50.812C65.9349 50.812 66.5949 51.052 67.0509 51.532C67.5069 51.988 67.7349 52.66 67.7349 53.548V55.42H67.3749C67.6629 53.98 68.2989 52.864 69.2829 52.072C70.2669 51.28 71.5389 50.836 73.0989 50.74C73.6989 50.692 74.1549 50.848 74.4669 51.208C74.8029 51.544 74.9829 52.108 75.0069 52.9C75.0549 53.644 74.8989 54.232 74.5389 54.664C74.2029 55.096 73.6269 55.36 72.8109 55.456L71.9829 55.528C70.6149 55.648 69.5949 56.044 68.9229 56.716C68.2749 57.388 67.9509 58.36 67.9509 59.632V66.328C67.9509 67.216 67.7109 67.9 67.2309 68.38C66.7749 68.86 66.1029 69.1 65.2149 69.1Z" fill="#36365A"/>
<path d="M83.7589 69.172C82.2709 69.172 81.0349 68.896 80.0509 68.344C79.0669 67.792 78.3349 66.964 77.8549 65.86C77.3989 64.732 77.1709 63.34 77.1709 61.684V53.548C77.1709 52.636 77.3989 51.952 77.8549 51.496C78.3349 51.04 79.0069 50.812 79.8709 50.812C80.7349 50.812 81.4069 51.04 81.8869 51.496C82.3669 51.952 82.6069 52.636 82.6069 53.548V61.828C82.6069 62.884 82.8229 63.676 83.2549 64.204C83.6869 64.708 84.3709 64.96 85.3069 64.96C86.3389 64.96 87.1789 64.6 87.8269 63.88C88.4989 63.136 88.8349 62.164 88.8349 60.964V53.548C88.8349 52.636 89.0629 51.952 89.5189 51.496C89.9989 51.04 90.6709 50.812 91.5349 50.812C92.4229 50.812 93.0949 51.04 93.5509 51.496C94.0309 51.952 94.2709 52.636 94.2709 53.548V66.328C94.2709 68.176 93.3949 69.1 91.6429 69.1C90.7789 69.1 90.1189 68.86 89.6629 68.38C89.2069 67.9 88.9789 67.216 88.9789 66.328V63.916L89.5189 65.32C88.9909 66.544 88.2349 67.492 87.2509 68.164C86.2669 68.836 85.1029 69.172 83.7589 69.172Z" fill="#36365A"/>
<path d="M107.081 69.172C105.161 69.172 103.481 68.8 102.041 68.056C100.625 67.288 99.5333 66.208 98.7653 64.816C97.9973 63.424 97.6133 61.78 97.6133 59.884C97.6133 58.468 97.8293 57.196 98.2613 56.068C98.6933 54.94 99.3173 53.98 100.133 53.188C100.973 52.396 101.981 51.796 103.157 51.388C104.333 50.956 105.641 50.74 107.081 50.74C107.825 50.74 108.617 50.836 109.457 51.028C110.297 51.196 111.125 51.496 111.941 51.928C112.421 52.144 112.745 52.456 112.913 52.864C113.105 53.248 113.177 53.656 113.129 54.088C113.081 54.496 112.925 54.868 112.661 55.204C112.421 55.516 112.109 55.732 111.725 55.852C111.341 55.948 110.909 55.876 110.429 55.636C109.973 55.372 109.493 55.18 108.989 55.06C108.509 54.94 108.053 54.88 107.621 54.88C106.901 54.88 106.265 55 105.713 55.24C105.161 55.456 104.693 55.78 104.309 56.212C103.949 56.62 103.661 57.136 103.445 57.76C103.253 58.384 103.157 59.104 103.157 59.92C103.157 61.504 103.541 62.752 104.309 63.664C105.101 64.552 106.205 64.996 107.621 64.996C108.053 64.996 108.509 64.948 108.989 64.852C109.469 64.732 109.949 64.54 110.429 64.276C110.909 64.036 111.341 63.976 111.725 64.096C112.109 64.216 112.409 64.444 112.625 64.78C112.865 65.092 112.997 65.464 113.021 65.896C113.069 66.304 112.997 66.712 112.805 67.12C112.637 67.504 112.325 67.804 111.869 68.02C111.053 68.428 110.237 68.716 109.421 68.884C108.605 69.076 107.825 69.172 107.081 69.172Z" fill="#36365A"/>
<path d="M124.497 69.172C122.409 69.172 120.609 68.8 119.097 68.056C117.609 67.288 116.457 66.22 115.641 64.852C114.849 63.46 114.453 61.828 114.453 59.956C114.453 58.132 114.837 56.536 115.605 55.168C116.373 53.776 117.441 52.696 118.809 51.928C120.201 51.136 121.773 50.74 123.525 50.74C124.797 50.74 125.949 50.956 126.981 51.388C128.013 51.796 128.901 52.396 129.645 53.188C130.389 53.956 130.953 54.904 131.337 56.032C131.721 57.136 131.913 58.372 131.913 59.74C131.913 60.196 131.769 60.544 131.481 60.784C131.193 61 130.773 61.108 130.221 61.108H118.917V58.3H127.989L127.413 58.804C127.413 57.82 127.269 57.004 126.981 56.356C126.693 55.684 126.273 55.18 125.721 54.844C125.193 54.508 124.533 54.34 123.741 54.34C122.853 54.34 122.097 54.544 121.473 54.952C120.849 55.36 120.369 55.948 120.033 56.716C119.697 57.484 119.529 58.408 119.529 59.488V59.776C119.529 61.6 119.949 62.944 120.789 63.808C121.653 64.672 122.925 65.104 124.605 65.104C125.181 65.104 125.841 65.032 126.585 64.888C127.329 64.744 128.025 64.516 128.673 64.204C129.225 63.94 129.717 63.856 130.149 63.952C130.581 64.024 130.917 64.216 131.157 64.528C131.397 64.84 131.529 65.2 131.553 65.608C131.601 66.016 131.517 66.424 131.301 66.832C131.085 67.216 130.725 67.54 130.221 67.804C129.405 68.26 128.481 68.596 127.449 68.812C126.441 69.052 125.457 69.172 124.497 69.172Z" fill="#36365A"/>
<path d="M26.52 101.1C25.608 101.1 24.912 100.848 24.432 100.344C23.952 99.84 23.712 99.132 23.712 98.22V80.004H17.34C16.596 80.004 16.02 79.8 15.612 79.392C15.204 78.984 15 78.42 15 77.7C15 76.956 15.204 76.392 15.612 76.008C16.02 75.6 16.596 75.396 17.34 75.396H35.664C36.408 75.396 36.984 75.6 37.392 76.008C37.8 76.392 38.004 76.956 38.004 77.7C38.004 78.42 37.8 78.984 37.392 79.392C36.984 79.8 36.408 80.004 35.664 80.004H29.292V98.22C29.292 99.132 29.052 99.84 28.572 100.344C28.116 100.848 27.432 101.1 26.52 101.1Z" fill="#E21A58"/>
<path d="M39.9024 101.1C38.9904 101.1 38.2944 100.86 37.8144 100.38C37.3344 99.9 37.0944 99.216 37.0944 98.328V85.548C37.0944 84.66 37.3224 83.988 37.7784 83.532C38.2584 83.052 38.9184 82.812 39.7584 82.812C40.6224 82.812 41.2824 83.052 41.7384 83.532C42.1944 83.988 42.4224 84.66 42.4224 85.548V87.42H42.0624C42.3504 85.98 42.9864 84.864 43.9704 84.072C44.9544 83.28 46.2264 82.836 47.7864 82.74C48.3864 82.692 48.8424 82.848 49.1544 83.208C49.4904 83.544 49.6704 84.108 49.6944 84.9C49.7424 85.644 49.5864 86.232 49.2264 86.664C48.8904 87.096 48.3144 87.36 47.4984 87.456L46.6704 87.528C45.3024 87.648 44.2824 88.044 43.6104 88.716C42.9624 89.388 42.6384 90.36 42.6384 91.632V98.328C42.6384 99.216 42.3984 99.9 41.9184 100.38C41.4624 100.86 40.7904 101.1 39.9024 101.1Z" fill="#E21A58"/>
<path d="M60.11 101.172C58.214 101.172 56.558 100.8 55.142 100.056C53.75 99.312 52.67 98.244 51.902 96.852C51.134 95.46 50.75 93.816 50.75 91.92C50.75 90.504 50.966 89.232 51.398 88.104C51.83 86.976 52.454 86.016 53.27 85.224C54.11 84.408 55.106 83.796 56.258 83.388C57.41 82.956 58.694 82.74 60.11 82.74C62.006 82.74 63.65 83.112 65.042 83.856C66.458 84.6 67.55 85.656 68.318 87.024C69.11 88.392 69.506 90.024 69.506 91.92C69.506 93.36 69.278 94.644 68.822 95.772C68.39 96.9 67.766 97.872 66.95 98.688C66.134 99.504 65.138 100.128 63.962 100.56C62.81 100.968 61.526 101.172 60.11 101.172ZM60.11 97.104C60.902 97.104 61.586 96.912 62.162 96.528C62.738 96.144 63.194 95.58 63.53 94.836C63.866 94.068 64.034 93.096 64.034 91.92C64.034 90.168 63.674 88.884 62.954 88.068C62.234 87.228 61.286 86.808 60.11 86.808C59.342 86.808 58.658 86.988 58.058 87.348C57.482 87.708 57.026 88.272 56.69 89.04C56.378 89.784 56.222 90.744 56.222 91.92C56.222 93.672 56.582 94.98 57.302 95.844C58.022 96.684 58.958 97.104 60.11 97.104Z" fill="#E21A58"/>
<path d="M79.1852 101.172C77.0492 101.172 75.4532 100.584 74.3972 99.408C73.3412 98.208 72.8132 96.432 72.8132 94.08V77.844C72.8132 76.932 73.0412 76.248 73.4972 75.792C73.9772 75.312 74.6612 75.072 75.5492 75.072C76.4132 75.072 77.0732 75.312 77.5292 75.792C78.0092 76.248 78.2492 76.932 78.2492 77.844V93.864C78.2492 94.848 78.4532 95.58 78.8612 96.06C79.2932 96.516 79.8572 96.744 80.5532 96.744C80.7452 96.744 80.9252 96.732 81.0932 96.708C81.2612 96.684 81.4412 96.672 81.6332 96.672C82.0172 96.624 82.2812 96.744 82.4252 97.032C82.5932 97.296 82.6772 97.836 82.6772 98.652C82.6772 99.372 82.5332 99.924 82.2452 100.308C81.9572 100.668 81.5132 100.908 80.9132 101.028C80.6732 101.052 80.3972 101.076 80.0852 101.1C79.7732 101.148 79.4732 101.172 79.1852 101.172Z" fill="#E21A58"/>
<path d="M91.1735 101.172C89.0375 101.172 87.4415 100.584 86.3855 99.408C85.3295 98.208 84.8015 96.432 84.8015 94.08V77.844C84.8015 76.932 85.0295 76.248 85.4855 75.792C85.9655 75.312 86.6495 75.072 87.5375 75.072C88.4015 75.072 89.0615 75.312 89.5175 75.792C89.9975 76.248 90.2375 76.932 90.2375 77.844V93.864C90.2375 94.848 90.4415 95.58 90.8495 96.06C91.2815 96.516 91.8455 96.744 92.5415 96.744C92.7335 96.744 92.9135 96.732 93.0815 96.708C93.2495 96.684 93.4295 96.672 93.6215 96.672C94.0055 96.624 94.2695 96.744 94.4135 97.032C94.5815 97.296 94.6655 97.836 94.6655 98.652C94.6655 99.372 94.5215 99.924 94.2335 100.308C93.9455 100.668 93.5015 100.908 92.9015 101.028C92.6615 101.052 92.3855 101.076 92.0735 101.1C91.7615 101.148 91.4615 101.172 91.1735 101.172Z" fill="#E21A58"/>
<path d="M105.794 101.172C103.706 101.172 101.906 100.8 100.394 100.056C98.906 99.288 97.754 98.22 96.938 96.852C96.146 95.46 95.75 93.828 95.75 91.956C95.75 90.132 96.134 88.536 96.902 87.168C97.67 85.776 98.738 84.696 100.106 83.928C101.498 83.136 103.07 82.74 104.822 82.74C106.094 82.74 107.246 82.956 108.278 83.388C109.31 83.796 110.198 84.396 110.942 85.188C111.686 85.956 112.25 86.904 112.634 88.032C113.018 89.136 113.21 90.372 113.21 91.74C113.21 92.196 113.066 92.544 112.778 92.784C112.49 93 112.07 93.108 111.518 93.108H100.214V90.3H109.286L108.71 90.804C108.71 89.82 108.566 89.004 108.278 88.356C107.99 87.684 107.57 87.18 107.018 86.844C106.49 86.508 105.83 86.34 105.038 86.34C104.15 86.34 103.394 86.544 102.77 86.952C102.146 87.36 101.666 87.948 101.33 88.716C100.994 89.484 100.826 90.408 100.826 91.488V91.776C100.826 93.6 101.246 94.944 102.086 95.808C102.95 96.672 104.222 97.104 105.902 97.104C106.478 97.104 107.138 97.032 107.882 96.888C108.626 96.744 109.322 96.516 109.97 96.204C110.522 95.94 111.014 95.856 111.446 95.952C111.878 96.024 112.214 96.216 112.454 96.528C112.694 96.84 112.826 97.2 112.85 97.608C112.898 98.016 112.814 98.424 112.598 98.832C112.382 99.216 112.022 99.54 111.518 99.804C110.702 100.26 109.778 100.596 108.746 100.812C107.738 101.052 106.754 101.172 105.794 101.172Z" fill="#E21A58"/>
<path d="M120.879 107.58C120.255 107.58 119.739 107.412 119.331 107.076C118.923 106.74 118.683 106.296 118.611 105.744C118.539 105.216 118.635 104.652 118.899 104.052L121.311 98.724V100.956L114.939 86.34C114.699 85.716 114.615 85.14 114.687 84.612C114.783 84.06 115.047 83.628 115.479 83.316C115.935 82.98 116.559 82.812 117.351 82.812C117.999 82.812 118.515 82.968 118.899 83.28C119.307 83.568 119.679 84.132 120.015 84.972L124.263 95.772H123.111L127.503 84.936C127.839 84.12 128.211 83.568 128.619 83.28C129.051 82.968 129.627 82.812 130.347 82.812C130.971 82.812 131.463 82.98 131.823 83.316C132.207 83.628 132.435 84.048 132.507 84.576C132.603 85.104 132.507 85.68 132.219 86.304L123.759 105.492C123.399 106.308 122.991 106.86 122.535 107.148C122.103 107.436 121.551 107.58 120.879 107.58Z" fill="#E21A58"/>
<rect x="1.5" y="1.5" width="144.543" height="147.58" rx="72.2717" stroke="#E21A58" stroke-width="3"/>
</svg>
